<svg id="svg" version="1.1" xmlns="http://www.w3.org/2000/svg" xmlns:xlink="http://www.w3.org/1999/xlink" width="400" height="398.2" viewBox="0, 0, 400,398.2"><g id="svgg"><path id="path0" d="M193.500 10.926 C 100.448 14.335,23.617 84.499,12.303 176.400 C 12.134 177.775,11.943 179.327,11.879 179.850 L 11.762 180.800 80.947 180.800 L 150.132 180.800 150.865 178.950 C 161.007 153.328,189.345 138.793,216.306 145.384 C 233.783 149.657,248.607 162.446,255.096 178.850 L 255.868 180.800 321.934 180.800 C 384.721 180.800,388.000 180.783,388.000 180.450 C 388.000 178.915,386.459 168.595,385.469 163.500 C 367.852 72.800,285.749 7.546,193.500 10.926 " stroke="none" fill="#fb3c3c" fill-rule="evenodd"></path><path id="path1" d="M188.400 0.216 C 93.082 5.781,14.961 77.786,1.808 172.200 C -5.654 225.769,9.701 280.957,43.904 323.500 C 79.661 367.974,131.860 394.824,188.773 398.017 C 300.152 404.264,395.140 317.929,399.594 206.400 C 399.706 203.595,399.843 200.832,399.900 200.259 C 400.060 198.620,399.632 188.174,399.192 183.000 C 390.023 75.057,296.440 -6.091,188.400 0.216 M211.700 11.202 C 302.847 17.084,376.130 86.118,387.596 176.900 C 387.818 178.660,388.000 180.258,388.000 180.450 C 388.000 180.783,384.721 180.800,321.934 180.800 L 255.868 180.800 255.096 178.850 C 248.607 162.446,233.783 149.657,216.306 145.384 C 189.345 138.793,161.007 153.328,150.865 178.950 L 150.132 180.800 80.947 180.800 L 11.762 180.800 11.879 179.850 C 11.943 179.327,12.134 177.775,12.303 176.400 C 24.455 77.691,112.440 4.796,211.700 11.202 M210.194 154.997 C 236.621 159.410,253.599 184.963,247.271 210.800 C 239.503 242.517,201.831 256.003,175.673 236.430 C 164.431 228.018,158.006 215.536,157.467 201.060 L 157.339 197.620 156.619 197.544 C 155.919 197.469,155.922 197.466,156.750 197.434 L 157.600 197.400 157.604 196.450 C 157.618 192.713,159.310 186.063,161.485 181.197 C 167.820 167.023,181.818 156.653,197.100 154.813 C 198.090 154.694,199.170 154.559,199.500 154.514 C 201.076 154.296,207.819 154.601,210.194 154.997 M155.056 197.346 C 154.592 197.388,153.782 197.389,153.256 197.347 C 152.730 197.306,153.110 197.272,154.100 197.271 C 155.090 197.270,155.520 197.304,155.056 197.346 M153.178 225.851 C 174.304 265.898,231.655 266.118,252.625 226.232 L 253.900 223.807 320.550 223.803 C 371.653 223.801,387.200 223.855,387.200 224.036 C 387.200 226.848,383.883 242.714,381.709 250.300 C 356.065 339.778,269.754 397.031,177.014 386.082 C 97.205 376.660,31.227 316.144,14.802 237.300 C 14.057 233.723,12.600 225.165,12.600 224.365 L 12.600 223.800 82.350 223.804 L 152.100 223.808 153.178 225.851 " stroke="none" fill="#3c3c3c" fill-rule="evenodd"></path><path id="path2" d="M200.400 154.520 C 162.650 157.714,144.121 200.472,168.065 229.139 C 194.724 261.056,246.124 243.523,248.503 201.700 C 249.981 175.715,226.149 152.341,200.400 154.520 M12.600 224.169 C 12.600 224.938,14.407 235.240,15.096 238.400 C 35.725 333.011,124.254 396.777,220.423 386.294 C 304.681 377.110,373.087 312.240,386.398 228.900 C 386.732 226.810,387.053 224.808,387.111 224.450 L 387.218 223.800 320.523 223.800 C 255.431 223.800,253.824 223.809,253.708 224.176 C 252.208 228.901,244.496 238.699,238.386 243.642 C 210.930 265.854,169.209 257.278,153.300 226.152 L 152.100 223.805 82.350 223.802 C 14.681 223.800,12.600 223.811,12.600 224.169 " stroke="none" fill="#fbfbfb" fill-rule="evenodd"></path><path id="path3" d="M63.700 329.600 C 64.130 330.040,64.526 330.400,64.581 330.400 C 64.636 330.400,64.330 330.040,63.900 329.600 C 63.470 329.160,63.074 328.800,63.019 328.800 C 62.964 328.800,63.270 329.160,63.700 329.600 M68.300 334.200 C 68.730 334.640,69.126 335.000,69.181 335.000 C 69.236 335.000,68.930 334.640,68.500 334.200 C 68.070 333.760,67.674 333.400,67.619 333.400 C 67.564 333.400,67.870 333.760,68.300 334.200 " stroke="none" fill="#ababab" fill-rule="evenodd"></path><path id="path4" d="M169.989 168.550 L 169.300 169.300 170.050 168.611 C 170.748 167.969,170.892 167.800,170.739 167.800 C 170.706 167.800,170.368 168.138,169.989 168.550 M153.256 197.347 C 153.782 197.389,154.592 197.388,155.056 197.346 C 155.520 197.304,155.090 197.270,154.100 197.271 C 153.110 197.272,152.730 197.306,153.256 197.347 M156.598 197.541 C 156.982 197.591,157.372 197.738,157.463 197.866 C 157.577 198.026,157.605 198.005,157.550 197.800 C 157.497 197.604,157.197 197.491,156.685 197.475 C 155.933 197.450,155.929 197.453,156.598 197.541 M235.789 231.550 L 235.100 232.300 235.850 231.611 C 236.263 231.232,236.600 230.894,236.600 230.861 C 236.600 230.708,236.431 230.852,235.789 231.550 M171.400 232.900 C 171.773 233.285,172.123 233.600,172.178 233.600 C 172.233 233.600,171.973 233.285,171.600 232.900 C 171.227 232.515,170.877 232.200,170.822 232.200 C 170.767 232.200,171.027 232.515,171.400 232.900 M243.389 238.950 L 242.700 239.700 243.450 239.011 C 243.863 238.632,244.200 238.294,244.200 238.261 C 244.200 238.108,244.031 238.252,243.389 238.950 M163.100 239.600 C 163.642 240.150,164.130 240.600,164.185 240.600 C 164.240 240.600,163.842 240.150,163.300 239.600 C 162.758 239.050,162.270 238.600,162.215 238.600 C 162.160 238.600,162.558 239.050,163.100 239.600 M333.596 331.950 L 331.700 333.900 333.650 332.004 C 335.461 330.243,335.691 330.000,335.546 330.000 C 335.516 330.000,334.639 330.878,333.596 331.950 " stroke="none" fill="#8c8c8c" fill-rule="evenodd"></path></g></svg>